<svg height="488pt" viewBox="-4 0 488 488.00565" width="488pt" xmlns="http://www.w3.org/2000/svg"><path d="m472.003906 16.003906v392l-56 56-16-16v-360zm0 0" fill="#00b6bd"/><path d="m472.003906 16.003906v392l-56 56-16-16 56-56v-360zm0 0" fill="#009698"/><path d="m400.003906 448.003906v-360l-160-80-160 80v360l-16 16 16 16 160-80 160 80 16-16zm0 0" fill="#00d7df"/><path d="m344.003906 368.003906v16h-80v-16l8.398438-12.558594c2.480468.796876 60.71875.796876 63.199218 0zm0 0" fill="#57a4ff"/><path d="m344.003906 368.003906v16h-80v-16h64v-12.160156c2.539063.027344 5.078125-.105469 7.597656-.398438zm0 0" fill="#2488ff"/><path d="m400.003906 88.003906v360l-16-16v-352zm0 0" fill="#009698"/><path d="m416.003906 464.003906-16 16-160-80-160 80-16-16 160-80 160 80 16-16zm0 0" fill="#009698"/><path d="m416.003906 248.003906c0 61.855469-50.144531 112-112 112-61.855468 0-112-50.144531-112-112 0-61.855468 50.144532-112 112-112 61.855469 0 112 50.144532 112 112zm0 0" fill="#ffe477"/><path d="m416.003906 248.003906c.035156 47.375-29.757812 89.640625-74.390625 105.523438-44.632812 15.882812-94.429687 1.945312-124.332031-34.804688 44.488281 36.414063 109.328125 33.183594 149.976562-7.464844 40.648438-40.648437 43.875-105.488281 7.464844-149.972656 26.15625 21.183594 41.328125 53.058594 41.28125 86.71875zm0 0" fill="#ffcd00"/><path d="m384.003906 248.003906c0 44.183594-35.816406 80-80 80s-80-35.816406-80-80 35.816406-80 80-80 80 35.816406 80 80zm0 0" fill="#57a4ff"/><path d="m384.003906 248.003906c.023438 34.402344-21.964844 64.964844-54.597656 75.871094-32.628906 10.90625-68.574219-.289062-89.242188-27.792969 31.84375 23.644531 76.207032 20.382813 104.253907-7.664062 28.042969-28.046875 31.304687-72.40625 7.664062-104.253907 20.097657 15.066407 31.925781 38.722657 31.921875 63.839844zm0 0" fill="#2488ff"/><path d="m344.003906 240.003906c0 22.078125-40 64-40 64s-40-41.921875-40-64c0-22.089844 17.90625-40 40-40 22.089844 0 40 17.910156 40 40zm0 0" fill="#ff3051"/><path d="m344.003906 240.003906c0 22.078125-40 64-40 64s-6.882812-7.199218-14.960937-17.121094c6.320312-6.800781 38.960937-42.960937 38.960937-62.878906.015625-6.683594-1.664062-13.261718-4.882812-19.121094 12.875 6.992188 20.886718 20.472657 20.882812 35.121094zm0 0" fill="#d80027"/><path d="m328.003906 456.003906c0 13.253906-10.746094 24-24 24-13.257812 0-24-10.746094-24-24v-72h48zm0 0" fill="#d8d7da"/><path d="m328.003906 384.003906v72c-.007812 9.699219-5.855468 18.441406-14.820312 22.152344-8.960938 3.710938-19.277344 1.664062-26.140625-5.191406-2.777344-2.800782-4.835938-6.234375-6-10 2.257812.675781 4.601562 1.023437 6.960937 1.039062 13.253906 0 24-10.746094 24-24v-56zm0 0" fill="#c6c5ca"/><path d="m320.003906 240.003906c0 8.835938-7.164062 16-16 16-8.835937 0-16-7.164062-16-16 0-8.835937 7.164063-16 16-16 8.835938 0 16 7.164063 16 16zm0 0" fill="#2488ff"/><path d="m320.003906 240.003906c0 8.835938-7.164062 16-16 16-8.835937 0-16-7.164062-16-16 .007813-.695312.0625-1.390625.160156-2.082031 2.378907 1.386719 5.085938 2.105469 7.839844 2.082031 8.015625-.03125 14.78125-5.972656 15.839844-13.921875 5.03125 2.832031 8.148438 8.148438 8.160156 13.921875zm0 0" fill="#005ece"/><path d="m80.003906 448.003906-16 16-56-56v-392l72 72zm0 0" fill="#00b6bd"/><path d="m80.003906 88.003906v360l-16 16-16-16 16-16v-360zm0 0" fill="#009698"/><path d="m475.066406 8.613281c-2.988281-1.238281-6.433594-.554687-8.71875 1.734375l-67.921875 67.921875-154.847656-77.425781c-2.25-1.125-4.898437-1.125-7.152344 0l-154.824219 77.425781-67.917968-67.921875c-2.285156-2.304687-5.738282-3-8.738282-1.757812-3 1.238281-4.9531245 4.167968-4.94140575 7.414062v392c0 2.121094.84374975 4.15625 2.34374975 5.65625l72 72c2.433594 2.433594 6.152344 3.039063 9.230469 1.503906l156.425781-78.214843 32 16v31.054687c.621094 17.035156 14.484375 30.589844 31.527344 30.828125s31.285156-12.921875 32.382812-29.933593l60.511719 30.304687c1.117188.539063 2.339844.8125 3.578125.800781 2.121094 0 4.15625-.84375 5.65625-2.34375l72-72c1.5-1.5 2.34375-3.535156 2.34375-5.65625v-392c0-3.234375-1.949218-6.152344-4.9375-7.390625zm-230.472656 154.101563c40.253906-27.984375 94.582031-24.058594 130.394531 9.421875 35.808594 33.484375 43.375 87.425781 18.160157 129.46875-14.78125 24.464843-38.933594 41.8125-66.839844 48-14.695313 3.140625-29.890625 3.140625-44.585938 0-40.363281-8.867188-71.644531-40.785157-79.695312-81.320313-8.050782-40.53125 8.65625-81.984375 42.566406-105.601562zm33.714844 202.554687c16.945312 3.652344 34.476562 3.652344 51.421875 0 .800781-.179687 1.601562-.464843 2.398437-.65625l3.875 5.789063v5.601562h-64v-5.601562l3.894532-5.824219c.808593.226563 1.59375.503906 2.410156.691406zm25.695312 106.734375c-8.835937 0-16-7.164062-16-16v-64h32v64c0 8.835938-7.164062 16-16 16zm160-67.3125-65.601562 65.601563-62.398438-31.203125v-47.085938h8c4.417969 0 8-3.582031 8-8v-16c0-1.585937-.472656-3.132812-1.351562-4.449218l-2.707032-4.039063c16.734376-6.589844 31.785157-16.832031 44.058594-29.976563v86.464844h16v-108.257812c21.332032-36.972656 21.332032-82.511719 0-119.488282v-52.253906h-16v30.542969c-22.738281-24.46875-54.597656-38.425781-88-38.542969-19.53125-.007812-38.765625 4.792969-56 13.984375v-69.984375h-16v80.304688c-34.742187 26.019531-52.671875 68.808594-46.859375 111.824218 5.8125 43.011719 34.457031 79.507813 74.859375 95.375l-2.679687 4c-.878907 1.332032-1.339844 2.898438-1.320313 4.496094v16c0 4.417969 3.582032 8 8 8h8v15.054688l-28.425781-14.214844c-2.25-1.125-4.898437-1.125-7.152344 0l-154.824219 77.425781-65.597656-65.578125v-369.375l58.34375 58.34375c2.433594 2.433594 6.152344 3.039063 9.230469 1.503906l156.425781-78.214843 156.421875 78.253906c3.082031 1.539063 6.800781.933594 9.234375-1.503906l58.34375-58.382813zm0 0"/><path d="m72.003906 112.003906h16v16h-16zm0 0"/><path d="m72.003906 144.003906h16v272h-16zm0 0"/><path d="m72.003906 432.003906h16v16h-16zm0 0"/><path d="m392.003906 112.003906h16v16h-16zm0 0"/><path d="m392.003906 432.003906h16v16h-16zm0 0"/><path d="m232.003906 40.003906h16v16h-16zm0 0"/><path d="m232.003906 360.003906h16v16h-16zm0 0"/><path d="m304.003906 312.003906c2.1875 0 4.28125-.894531 5.789063-2.480468 4.320312-4.519532 42.210937-44.9375 42.210937-69.519532 0-26.511718-21.492187-48-48-48-26.511718 0-48 21.488282-48 48 0 24.582032 37.886719 65 42.207032 69.519532 1.511718 1.585937 3.601562 2.480468 5.792968 2.480468zm0-104c17.671875 0 32 14.328125 32 32 0 12-17.777344 36.078125-32 52.167969-14.234375-16.070313-32-40.121094-32-52.167969 0-17.671875 14.324219-32 32-32zm0 0"/><path d="m328.003906 240.003906c0-13.253906-10.746094-24-24-24-13.257812 0-24 10.746094-24 24s10.742188 24 24 24c13.253906 0 24-10.746094 24-24zm-32 0c0-4.417968 3.582032-8 8-8 4.417969 0 8 3.582032 8 8 0 4.417969-3.582031 8-8 8-4.417968 0-8-3.582031-8-8zm0 0"/><path d="m304.003906 336.003906c48.601563 0 88-39.398437 88-88 0-48.601562-39.398437-88-88-88-48.601562 0-88 39.398438-88 88 .054688 48.578125 39.421875 87.941406 88 88zm0-160c39.761719 0 72 32.234375 72 72s-32.238281 72-72 72c-39.765625 0-72-32.234375-72-72 .042969-39.746094 32.253906-71.957031 72-72zm0 0"/></svg>