<svg height="512pt" viewBox="0 -96 512 512" width="512pt" xmlns="http://www.w3.org/2000/svg"><path d="m442 190-40-20h-392v80c0 11.050781 8.949219 20 20 20h452c11.050781 0 20-8.949219 20-20v-60zm0 0" fill="#ffda2d"/><path d="m502 50v20c-6.695312 0-476.035156 0-492 0v-40c0-11.050781 8.949219-20 20-20h432c22.089844 0 40 17.910156 40 40zm0 0" fill="#ffda2d"/><g fill="#7c8388"><path d="m402 230c22.089844 0 40 17.910156 40 40s-17.910156 40-40 40-40-17.910156-40-40 17.910156-40 40-40zm0 0"/><path d="m110 230c22.089844 0 40 17.910156 40 40s-17.910156 40-40 40-40-17.910156-40-40 17.910156-40 40-40zm0 0"/><path d="m10 70v100h392l40 20h60v-120c-12.679688 0-474.601562 0-492 0zm0 0"/></g><path d="m412 270c0 5.523438-4.476562 10-10 10s-10-4.476562-10-10 4.476562-10 10-10 10 4.476562 10 10zm0 0"/><path d="m120 270c0 5.523438-4.476562 10-10 10s-10-4.476562-10-10 4.476562-10 10-10 10 4.476562 10 10zm0 0"/><path d="m462 0h-161c-5.523438 0-10 4.476562-10 10s4.476562 10 10 10h161c16.542969 0 30 13.457031 30 30v10h-472v-30c0-5.515625 4.484375-10 10-10h181c5.523438 0 10-4.476562 10-10s-4.476562-10-10-10h-181c-16.542969 0-30 13.457031-30 30v220c0 16.542969 13.457031 30 30 30h31.007812c1.503907 7.386719 4.644532 14.183594 9.019532 20h-60.027344c-5.523438 0-10 4.476562-10 10s4.476562 10 10 10h492c5.523438 0 10-4.476562 10-10s-4.476562-10-10-10h-60.027344c4.378906-5.816406 7.515625-12.613281 9.019532-20h31.007812c16.542969 0 30-13.457031 30-30v-200c0-27.570312-22.429688-50-50-50zm30 180h-47.640625l-32.359375-16.179688v-83.820312h80zm-352-20v-80h106v80zm126-80h126v80h-126zm-146 0v80h-100v-80zm-40 190c0-16.542969 13.457031-30 30-30s30 13.457031 30 30-13.457031 30-30 30-30-13.457031-30-30zm273.007812 10c1.503907 7.386719 4.644532 14.183594 9.019532 20h-212.054688c4.378906-5.816406 7.515625-12.613281 9.019532-20zm18.992188-10c0-16.542969 13.457031-30 30-30s30 13.457031 30 30-13.457031 30-30 30-30-13.457031-30-30zm110-10h-31.007812c-4.644532-22.796875-24.84375-40-48.992188-40s-44.347656 17.203125-48.992188 40h-194.015624c-4.644532-22.796875-24.84375-40-48.992188-40s-44.347656 17.203125-48.992188 40h-31.007812c-5.515625 0-10-4.484375-10-10v-10h20c5.523438 0 10-4.476562 10-10s-4.476562-10-10-10h-20v-40h379.640625l37.886719 18.945312c1.390625.691407 2.921875 1.054688 4.472656 1.054688h50v20h-20c-5.519531 0-10 4.476562-10 10s4.480469 10 10 10h20v10c0 5.515625-4.484375 10-10 10zm0 0"/><path d="m266 10c0 5.523438-4.476562 10-10 10s-10-4.476562-10-10 4.476562-10 10-10 10 4.476562 10 10zm0 0"/><path d="m342 200h-172c-5.523438 0-10 4.476562-10 10s4.476562 10 10 10h172c5.523438 0 10-4.476562 10-10s-4.476562-10-10-10zm0 0"/></svg>