<svg height="512pt" viewBox="0 -81 512 512" width="512pt" xmlns="http://www.w3.org/2000/svg"><path d="m145.011719 220c-13.691407-18.210938-35.472657-30-60.011719-30-41.421875 0-75 33.578125-75 75s33.578125 75 75 75c36.28125 0 66.550781-25.769531 73.5-60zm0 0" fill="#7c8388"/><path d="m442 220c33.140625 0 60 26.859375 60 60s-26.859375 60-60 60-60-26.859375-60-60c0-33.1875 26.921875-60 60-60zm0 0" fill="#7c8388"/><path d="m353.949219 10h-1.949219v94.128906l90.011719 55.871094c10.160156 0 20.199219 1.269531 29.988281 3.808594 0 0 0-33.71875 0-35.558594 0-65.320312-52.851562-118.25-118.050781-118.25zm0 0" fill="#deecf1"/><path d="m314.5 100.011719c-26.738281.257812-51.808594 7.519531-73.449219 20.027343l-.359375-.410156c-17.660156-19.609375-39.980468-34-64.53125-42.089844v-.007812c-14.988281-4.941406-30.820312-7.53125-46.941406-7.53125h-119.21875c0 33.140625 26.859375 60 60 60 79.097656 0 129.945312 39.503906 148.210938 90 7.011718 19.304688 9.175781 40.113281 6.960937 60h96.828125c0-9.359375 1.078125-18.960938 3.351562-28.691406 10.117188-43.398438 45.597657-78.480469 89.089844-88.21875 9.199219-2.058594 18.429688-3.089844 27.570313-3.089844-28.570313-38.046875-80.667969-60.929688-127.511719-59.988281zm0 0" fill="#ff641a"/><path d="m462 280c0 11.046875-8.953125 20-20 20s-20-8.953125-20-20 8.953125-20 20-20 20 8.953125 20 20zm0 0" fill="#deecf1"/><path d="m241 40c36.289062 0 66.558594 25.769531 73.5 60.011719-26.738281.257812-51.808594 7.519531-73.449219 20.027343l-.359375-.410156c-17.660156-19.609375-39.980468-34-64.53125-42.089844v-.007812l.210938-.609375c13.050781-22.101563 37.109375-36.921875 64.628906-36.921875zm0 0" fill="#7c8388"/><path d="m218.210938 220c-10.3125 0-77.730469 0-88.210938 0-11.28125 0-21.101562 6.21875-26.230469 15.429688-5.519531-3.519532-11.980469-5.429688-18.769531-5.429688-19.300781 0-35 15.699219-35 35s15.699219 35 35 35c14.699219 0 27.699219-9.230469 32.75-22.601562l.011719-.019532c3.738281 1.691406 7.878906 2.621094 12.238281 2.621094h95.171875c.546875-4.929688.828125-9.929688.828125-15 0-15.648438-2.640625-30.820312-7.789062-45zm0 0" fill="#deecf1"/><path d="m85 180c-46.867188 0-85 38.132812-85 85s38.132812 85 85 85c37.480469 0 70.414062-24.789062 81.246094-60h155.753906c5.523438 0 10-4.476562 10-10 0-8.746094 1.039062-17.632812 3.089844-26.417969 4.722656-20.261719 15.683594-38.664062 30.582031-52.984375l25.253906 31.566406c-12.113281 12.890626-18.925781 29.839844-18.925781 47.835938 0 38.597656 31.402344 70 70 70s70-31.402344 70-70-31.402344-70-70-70c-12.488281 0-24.773438 3.394531-35.460938 9.667969l-25.273437-31.59375c27.050781-17.976563 59.945313-21.921875 88.222656-14.585938 6.328125 1.640625 12.511719-3.136719 12.511719-9.679687v-35.558594c0-70.71875-57.441406-128.25-128.050781-128.25h-46.949219c-5.523438 0-10 4.476562-10 10s4.476562 10 10 10h35v72.050781c-6.578125-1.023437-13.167969-1.664062-19.714844-1.914062-4.964844-16.230469-14.761718-30.75-28.144531-41.484375-4.308594-3.453125-10.605469-2.761719-14.058594 1.546875-3.453125 4.308593-2.761719 10.605469 1.546875 14.058593 8.765625 7.027344 15.515625 16.175782 19.664063 26.441407-20.324219 1.871093-40.136719 7.609375-58.246094 16.890625-14.683594-14.859375-32.179687-26.722656-51.390625-34.871094 4.519531-5.265625 9.855469-9.820312 15.808594-13.414062 4.726562-2.855469 6.246094-9 3.394531-13.730469-2.855469-4.726563-9-6.246094-13.730469-3.390625-9.980468 6.023437-18.652344 14.09375-25.40625 23.570312-13.832031-3.816406-28.09375-5.753906-42.503906-5.753906h-119.21875c-5.523438 0-10 4.476562-10 10 0 38.597656 31.402344 70 70 70 45.066406 0 82.941406 13.378906 109.535156 38.691406 9.664063 9.203125 17.503906 19.695313 23.441406 31.308594h-53.160156c-16.203125-19.128906-39.546875-30-64.816406-30zm357 50c27.570312 0 50 22.429688 50 50s-22.429688 50-50 50-50-22.429688-50-50c0-11.863281 4.148438-23.09375 11.59375-31.996094l12.921875 16.152344c-2.925781 4.6875-4.515625 10.144531-4.515625 15.84375 0 16.542969 13.457031 30 30 30s30-13.457031 30-30-13.457031-30-30-30c-3.371094 0-6.707031.578125-9.855469 1.675781l-12.949219-16.1875c6.988282-3.605469 14.726563-5.488281 22.804688-5.488281zm0 40c5.515625 0 10 4.484375 10 10s-4.484375 10-10 10-10-4.484375-10-10c0-5.546875 4.519531-10 10-10zm-226-5c0 1.664062-.046875 3.335938-.109375 5-17.800781 0-68.808594 0-85.890625 0-11.003906 0-20-8.945312-20-20 0-11.191406 9.113281-20 20-20h80.957031c3.332031 11.191406 5.042969 22.929688 5.042969 35zm-111.574219 15.730469c-4.671875 5.730469-11.789062 9.269531-19.425781 9.269531-13.785156 0-25-11.214844-25-25s11.214844-25 25-25c2.078125 0 4.125.265625 6.101562.753906-.71875 3.019532-1.101562 6.121094-1.101562 9.246094 0 12.054688 5.449219 23.257812 14.425781 30.730469zm-19.425781 49.269531c-35.839844 0-65-29.160156-65-65s29.160156-65 65-65c13.183594 0 25.675781 3.886719 36.222656 10.996094-7.871094 1.773437-15.03125 5.898437-20.523437 11.808594-4.976563-1.847657-10.285157-2.804688-15.699219-2.804688-24.8125 0-45 20.1875-45 45s20.1875 45 45 45c15.421875 0 29.671875-8.019531 37.84375-20.652344 2.34375.425782 4.730469.640625 7.15625.640625h15.003906c-9.925781 23.761719-33.472656 40.011719-60.003906 40.011719zm265.347656-142.53125c-17.332031 17.15625-29.34375 38.445312-34.734375 61.570312-1.625 6.949219-2.703125 13.96875-3.234375 20.960938h-76.464844c.058594-1.667969.085938-3.335938.085938-5 0-34.070312-11.785156-67.441406-35.78125-93.734375 11.847656-17.371094 27.570312-32 45.765625-42.527344.011719-.007812.027344-.015625.042969-.023437.007812-.003906.019531-.011719.027344-.019532 58.324218-33.714843 131.964843-18.808593 175.203124 22.933594-28.121093 4.375-52.109374 17.230469-70.910156 35.839844zm111.652344-59.21875v23.292969c-4.96875-.773438-9.992188-1.25-15.042969-1.441407-20.347656-25.113281-50.75-44.332031-84.957031-53.757812v-76.042969c55.835938 4.140625 100 50.972657 100 107.949219zm-440.996094-48.25h108.214844c35.871094 0 70.148438 13.746094 96.078125 38.199219-15.386719 10.617187-28.882813 23.90625-39.734375 39.148437-29.707031-24.464844-69.40625-37.347656-115.5625-37.347656-24.144531 0-44.347656-17.207031-48.996094-40zm0 0"/><path d="m256 40c0 5.523438-4.476562 10-10 10s-10-4.476562-10-10 4.476562-10 10-10 10 4.476562 10 10zm0 0"/></svg>