<svg height="512pt" viewBox="0 -85 512 512" width="512pt" xmlns="http://www.w3.org/2000/svg"><path d="m455.144531 334.859375h-398.289062c-27.257813 0-49.355469-22.097656-49.355469-49.355469v-228.648437c0-27.257813 22.097656-49.355469 49.355469-49.355469h398.289062c27.257813 0 49.355469 22.097656 49.355469 49.355469v228.648437c0 27.257813-22.097656 49.355469-49.355469 49.355469zm0 0" fill="#73da8c"/><path d="m138.644531 285.503906v-228.648437c0-27.257813 22.097657-49.355469 49.359375-49.355469h-131.148437c-27.257813 0-49.355469 22.097656-49.355469 49.355469v228.648437c0 27.257813 22.097656 49.355469 49.355469 49.355469h131.148437c-27.261718 0-49.359375-22.097656-49.359375-49.355469zm0 0" fill="#29ce69"/><path d="m241 224.699219h30v110.160156h-30zm0 0" fill="#f4e74d"/><path d="m241 7.5h30v110.15625h-30zm0 0" fill="#f4e74d"/><path d="m256 239.699219c-37.78125 0-68.523438-30.738281-68.523438-68.519531 0-37.785157 30.742188-68.523438 68.523438-68.523438s68.523438 30.738281 68.523438 68.523438c0 37.78125-30.742188 68.519531-68.523438 68.519531zm0-107.042969c-21.242188 0-38.523438 17.28125-38.523438 38.523438 0 21.242187 17.28125 38.519531 38.523438 38.519531s38.523438-17.277344 38.523438-38.519531c0-21.242188-17.28125-38.523438-38.523438-38.523438zm0 0" fill="#fcf5af"/><path d="m417.867188 230.691406c-32.816407 0-59.511719-26.695312-59.511719-59.511718 0-32.816407 26.695312-59.515626 59.511719-59.515626v30c-16.273438 0-29.511719 13.242188-29.511719 29.515626 0 16.273437 13.238281 29.511718 29.511719 29.511718zm0 0" fill="#f4e74d"/><path d="m504.5 270.039062h-80.457031c-8.28125 0-15-6.714843-15-15v-167.722656c0-8.28125 6.71875-15 15-15h80.457031v30h-65.457031v137.722656h65.457031zm0 0" fill="#fcf5af"/><path d="m94.132812 230.691406v-30c16.273438 0 29.511719-13.238281 29.511719-29.511718 0-16.273438-13.238281-29.515626-29.511719-29.515626v-30c32.816407 0 59.511719 26.699219 59.511719 59.515626 0 32.816406-26.695312 59.511718-59.511719 59.511718zm0 0" fill="#f4e74d"/><path d="m87.957031 270.039062h-80.457031v-30h65.457031v-137.722656h-65.457031v-30h80.457031c8.28125 0 15 6.71875 15 15v167.722656c0 8.285157-6.71875 15-15 15zm0 0" fill="#fcf5af"/><path d="m271 171.179688c0 8.285156-6.714844 15-15 15s-15-6.714844-15-15c0-8.285157 6.714844-15 15-15s15 6.714843 15 15zm0 0" fill="#fcf5af"/><path d="m7.5 128.273438h22.820312c8.285157 0 15 6.351562 15 14.183593v57.445313c0 7.832031-6.714843 14.183594-15 14.183594h-22.820312zm0 0" fill="#f4e74d"/><path d="m504.5 128.273438h-22.820312c-8.285157 0-15 6.351562-15 14.183593v57.445313c0 7.832031 6.714843 14.183594 15 14.183594h22.820312zm0 0" fill="#f4e74d"/><path d="m455.144531 0h-40.898437c-4.144532 0-7.5 3.359375-7.5 7.5s3.355468 7.5 7.5 7.5h40.898437c23.078125 0 41.855469 18.777344 41.855469 41.855469v7.960937h-72.957031c-12.40625 0-22.5 10.09375-22.5 22.5v18.875c-29.3125 7.394532-50.6875 34.238282-50.6875 64.988282 0 30.730468 21.378906 57.59375 50.6875 64.988281v18.871093c0 12.40625 10.09375 22.5 22.5 22.5h72.957031v7.964844c0 23.078125-18.777344 41.855469-41.855469 41.855469h-176.644531v-83.558594c30.96875-9.613281 53.523438-38.53125 53.523438-72.621093 0-34.089844-22.554688-63.007813-53.523438-72.621094v-83.558594h104c4.144531 0 7.5-3.359375 7.5-7.5s-3.355469-7.5-7.5-7.5h-325.644531c-31.351563 0-56.855469 25.507812-56.855469 56.855469v228.648437c0 31.347656 25.503906 56.855469 56.855469 56.855469h24.347656c4.140625 0 7.5-3.359375 7.5-7.5 0-4.144531-3.359375-7.5-7.5-7.5h-24.347656c-23.078125 0-41.855469-18.777344-41.855469-41.855469v-7.964844h72.957031c12.40625 0 22.5-10.09375 22.5-22.5v-18.871093c29.308594-7.394531 50.6875-34.257813 50.6875-64.988281 0-30.75-21.375-57.59375-50.6875-64.988282v-18.875c0-12.40625-10.09375-22.5-22.5-22.5h-72.957031v-7.960937c0-23.078125 18.777344-41.855469 41.855469-41.855469h176.644531v83.558594c-30.96875 9.613281-53.523438 38.53125-53.523438 72.621094 0 34.089843 22.554688 63.007812 53.523438 72.621093v83.558594h-120.007812c-4.140626 0-7.5 3.355469-7.5 7.5 0 4.140625 3.359374 7.5 7.5 7.5h341.652343c31.351563 0 56.855469-25.507813 56.855469-56.855469v-228.648437c0-31.347657-25.503906-56.855469-56.855469-56.855469zm-440.144531 135.773438h15.320312c4.136719 0 7.5 3 7.5 6.683593v57.445313c0 3.683594-3.363281 6.683594-7.5 6.683594h-15.320312zm0 85.8125h15.320312c12.40625 0 22.5-9.730469 22.5-21.683594v-57.445313c0-11.957031-10.09375-21.683593-22.5-21.683593h-15.320312v-10.957032h50.457031v122.722656h-50.457031zm95.457031-65.183594c3.574219 3.945312 5.6875 9.148437 5.6875 14.777344 0 5.628906-2.113281 10.832031-5.6875 14.773437zm35.6875 14.777344c0 22.558593-14.839843 42.425781-35.6875 49.371093v-16.148437c12.570313-6.148438 20.6875-18.882813 20.6875-33.222656 0-14.34375-8.117187-27.078126-20.6875-33.226563v-16.148437c20.851563 6.941406 35.6875 26.800781 35.6875 49.375zm-58.1875-91.363282c4.136719 0 7.5 3.367188 7.5 7.5v167.722656c0 4.136719-3.363281 7.5-7.5 7.5h-72.957031v-15h57.957031c4.140625 0 7.5-3.355468 7.5-7.5v-137.722656c0-4.140625-3.359375-7.5-7.5-7.5h-57.957031v-15zm160.542969-64.816406h15v80.53125c-2.46875-.246094-12.53125-.246094-15 0zm-53.523438 156.179688c0-33.648438 27.375-61.023438 61.023438-61.023438s61.023438 27.375 61.023438 61.023438c0 33.644531-27.375 61.019531-61.023438 61.019531s-61.023438-27.371094-61.023438-61.019531zm53.523438 75.648437c2.46875.242187 12.53125.242187 15 0v80.53125h-15zm248.5-40.242187h-15.320312c-4.136719 0-7.5-3-7.5-6.683594v-57.445313c0-3.683593 3.363281-6.683593 7.5-6.683593h15.320312zm-15.320312-85.8125c-12.40625 0-22.5 9.726562-22.5 21.683593v57.445313c0 11.953125 10.09375 21.683594 22.5 21.683594h15.320312v10.953124h-50.457031v-122.722656h50.457031v10.957032zm-80.136719 65.179687c-3.574219-3.945313-5.6875-9.148437-5.6875-14.773437 0-5.628907 2.113281-10.832032 5.6875-14.777344zm-35.6875-14.773437c0-22.574219 14.835937-42.433594 35.6875-49.375v16.152343c-12.570313 6.144531-20.6875 18.878907-20.6875 33.222657s8.117187 27.078124 20.6875 33.222656v16.148437c-20.847657-6.945312-35.6875-26.8125-35.6875-49.371093zm58.1875 91.359374c-4.136719 0-7.5-3.363281-7.5-7.5v-167.722656c0-4.132812 3.363281-7.5 7.5-7.5h72.957031v15h-57.957031c-4.140625 0-7.5 3.359375-7.5 7.5v137.722656c0 4.144532 3.359375 7.5 7.5 7.5h57.957031v15zm0 0"/><path d="m302.023438 171.179688c0-25.378907-20.648438-46.023438-46.023438-46.023438s-46.023438 20.644531-46.023438 46.023438c0 25.375 20.648438 46.019531 46.023438 46.019531s46.023438-20.644531 46.023438-46.019531zm-77.046876 0c0-17.105469 13.917969-31.023438 31.023438-31.023438s31.023438 13.917969 31.023438 31.023438c0 17.105468-13.917969 31.019531-31.023438 31.019531s-31.023438-13.914063-31.023438-31.019531zm0 0"/><path d="m278.5 171.179688c0-12.40625-10.09375-22.5-22.5-22.5s-22.5 10.09375-22.5 22.5 10.09375 22.5 22.5 22.5 22.5-10.09375 22.5-22.5zm-30 0c0-4.136719 3.363281-7.5 7.5-7.5s7.5 3.363281 7.5 7.5c0 4.136718-3.363281 7.5-7.5 7.5s-7.5-3.363282-7.5-7.5zm0 0"/></svg>